<svg xmlns="http://www.w3.org/2000/svg" viewBox="0 0 351.32 328.32"><defs><style>.cls-1{fill:#e84d24;}.cls-2{fill:#fff;}</style></defs><title>Asset 4</title><g id="Layer_2" data-name="Layer 2"><g id="Layer_1-2" data-name="Layer 1"><path class="cls-1" d="M351.32,184.72c0,53.81-14,137-60,126-27.81-6.65-53.7-8.4-133,15-61,18-34-63-99-68-37-2.85-68.23-50.81-57-89,15-51,41-24,59-91,11.58-43.12,75.26-103.39,116-66,85,78,91-6,139,94C337.17,149.16,351.32,132.73,351.32,184.72Z"/><path class="cls-2" d="M51.32,194.32V186.9a19.5,19.5,0,0,1,19.5-19.5h39a19.5,19.5,0,0,0,19.5-19.5V63.11a19.5,19.5,0,0,1,19.5-19.5h0a19.5,19.5,0,0,1,19.5,19.5V194.32a19.5,19.5,0,0,1-19.5,19.5h-78A19.5,19.5,0,0,1,51.32,194.32Z"/><path class="cls-2" d="M178.09,260.72v-26a6.5,6.5,0,0,1,6.5-6.5h65a6.5,6.5,0,0,0,6.5-6.5h0a6.5,6.5,0,0,0-6.5-6.5h-65a6.5,6.5,0,0,1-6.5-6.5v-26a6.5,6.5,0,0,1,6.5-6.5h65a6.5,6.5,0,0,0,6.5-6.5h0a6.5,6.5,0,0,0-6.5-6.5h-65a6.5,6.5,0,0,1-6.5-6.5v-26a6.5,6.5,0,0,1,6.5-6.5h104a6.5,6.5,0,0,1,6.5,6.5v130a6.5,6.5,0,0,1-6.5,6.5h-104A6.5,6.5,0,0,1,178.09,260.72Z"/></g></g></svg>